<mxfile host="app.diagrams.net" agent="Mozilla/5.0 (X11; Ubuntu; Linux x86_64; rv:132.0) Gecko/20100101 Firefox/132.0" version="25.0.1">
  <diagram name="Page-1" id="r_koh1BKdaea3nCBk7Vd">
    <mxGraphModel dx="1368" dy="790" grid="0" gridSize="10" guides="1" tooltips="1" connect="1" arrows="1" fold="1" page="1" pageScale="1" pageWidth="827" pageHeight="1169" math="0" shadow="0">
      <root>
        <mxCell id="0" />
        <mxCell id="1" parent="0" />
        <mxCell id="YpeX5IWYdp3d9IxiseLO-61" value="" style="endArrow=none;dashed=1;html=1;rounded=0;" edge="1" parent="1" source="YpeX5IWYdp3d9IxiseLO-40">
          <mxGeometry width="50" height="50" relative="1" as="geometry">
            <mxPoint x="175" y="579" as="sourcePoint" />
            <mxPoint x="350" y="946" as="targetPoint" />
            <Array as="points">
              <mxPoint x="348" y="587" />
            </Array>
          </mxGeometry>
        </mxCell>
        <mxCell id="YpeX5IWYdp3d9IxiseLO-60" value="" style="endArrow=none;dashed=1;html=1;rounded=0;" edge="1" parent="1">
          <mxGeometry width="50" height="50" relative="1" as="geometry">
            <mxPoint x="1125" y="590.5" as="sourcePoint" />
            <mxPoint x="1245" y="590.5" as="targetPoint" />
            <Array as="points" />
          </mxGeometry>
        </mxCell>
        <mxCell id="YpeX5IWYdp3d9IxiseLO-31" value="" style="line;strokeWidth=2;direction=south;html=1;rotation=90;rounded=0;" vertex="1" parent="1">
          <mxGeometry x="708" y="362" width="10" height="110" as="geometry" />
        </mxCell>
        <mxCell id="YpeX5IWYdp3d9IxiseLO-30" value="" style="line;strokeWidth=2;direction=south;html=1;rotation=90;rounded=0;" vertex="1" parent="1">
          <mxGeometry x="708" y="544" width="10" height="110" as="geometry" />
        </mxCell>
        <mxCell id="YpeX5IWYdp3d9IxiseLO-29" value="" style="line;strokeWidth=2;direction=south;html=1;rotation=90;rounded=0;" vertex="1" parent="1">
          <mxGeometry x="708" y="725" width="10" height="110" as="geometry" />
        </mxCell>
        <mxCell id="YpeX5IWYdp3d9IxiseLO-41" value="" style="line;strokeWidth=2;direction=south;html=1;rotation=-90;rounded=0;" vertex="1" parent="1">
          <mxGeometry x="458" y="427" width="10" height="110" as="geometry" />
        </mxCell>
        <mxCell id="YpeX5IWYdp3d9IxiseLO-42" value="" style="line;strokeWidth=2;direction=south;html=1;rotation=-90;rounded=0;" vertex="1" parent="1">
          <mxGeometry x="453" y="627" width="10" height="120" as="geometry" />
        </mxCell>
        <mxCell id="YpeX5IWYdp3d9IxiseLO-38" value="" style="line;strokeWidth=2;direction=south;html=1;rotation=51;rounded=0;" vertex="1" parent="1">
          <mxGeometry x="958" y="627" width="10" height="145.21" as="geometry" />
        </mxCell>
        <mxCell id="YpeX5IWYdp3d9IxiseLO-37" value="" style="line;strokeWidth=2;direction=south;html=1;rotation=-45;rounded=0;" vertex="1" parent="1">
          <mxGeometry x="952.9" y="389.9" width="15" height="178" as="geometry" />
        </mxCell>
        <mxCell id="YpeX5IWYdp3d9IxiseLO-36" value="" style="line;strokeWidth=2;direction=south;html=1;rotation=90;rounded=0;" vertex="1" parent="1">
          <mxGeometry x="942.9000000000001" y="523.39" width="10" height="145.21" as="geometry" />
        </mxCell>
        <mxCell id="YpeX5IWYdp3d9IxiseLO-2" value="&lt;div align=&quot;center&quot; style=&quot;line-height: 220%;&quot;&gt;&lt;br&gt;&lt;/div&gt;" style="whiteSpace=wrap;html=1;aspect=fixed;fillColor=#dae8fc;strokeColor=#6c8ebf;align=center;rounded=0;" vertex="1" parent="1">
          <mxGeometry x="768" y="342" width="140" height="140" as="geometry" />
        </mxCell>
        <mxCell id="YpeX5IWYdp3d9IxiseLO-1" value="" style="shape=image;html=1;verticalAlign=top;verticalLabelPosition=bottom;labelBackgroundColor=#ffffff;imageAspect=0;aspect=fixed;image=https://cdn1.iconfinder.com/data/icons/unicons-line-vol-3/24/docker-128.png;rounded=0;" vertex="1" parent="1">
          <mxGeometry x="809" y="362" width="58" height="58" as="geometry" />
        </mxCell>
        <mxCell id="YpeX5IWYdp3d9IxiseLO-3" value="Auth-Service" style="text;html=1;align=center;verticalAlign=middle;whiteSpace=wrap;rounded=0;" vertex="1" parent="1">
          <mxGeometry x="783" y="432" width="110" height="30" as="geometry" />
        </mxCell>
        <mxCell id="YpeX5IWYdp3d9IxiseLO-4" value="&lt;div align=&quot;center&quot; style=&quot;line-height: 220%;&quot;&gt;&lt;br&gt;&lt;/div&gt;" style="whiteSpace=wrap;html=1;aspect=fixed;fillColor=#dae8fc;strokeColor=#6c8ebf;align=center;rounded=0;" vertex="1" parent="1">
          <mxGeometry x="768" y="710" width="140" height="140" as="geometry" />
        </mxCell>
        <mxCell id="YpeX5IWYdp3d9IxiseLO-5" value="" style="shape=image;html=1;verticalAlign=top;verticalLabelPosition=bottom;labelBackgroundColor=#ffffff;imageAspect=0;aspect=fixed;image=https://cdn1.iconfinder.com/data/icons/unicons-line-vol-3/24/docker-128.png;rounded=0;" vertex="1" parent="1">
          <mxGeometry x="809" y="730" width="58" height="58" as="geometry" />
        </mxCell>
        <mxCell id="YpeX5IWYdp3d9IxiseLO-6" value="Register-Service" style="text;html=1;align=center;verticalAlign=middle;whiteSpace=wrap;rounded=0;" vertex="1" parent="1">
          <mxGeometry x="783" y="800" width="110" height="30" as="geometry" />
        </mxCell>
        <mxCell id="YpeX5IWYdp3d9IxiseLO-10" value="&lt;div align=&quot;center&quot; style=&quot;line-height: 220%;&quot;&gt;&lt;br&gt;&lt;/div&gt;" style="whiteSpace=wrap;html=1;aspect=fixed;fillColor=#dae8fc;strokeColor=#6c8ebf;align=center;rounded=0;" vertex="1" parent="1">
          <mxGeometry x="768" y="526" width="140" height="140" as="geometry" />
        </mxCell>
        <mxCell id="YpeX5IWYdp3d9IxiseLO-11" value="" style="shape=image;html=1;verticalAlign=top;verticalLabelPosition=bottom;labelBackgroundColor=#ffffff;imageAspect=0;aspect=fixed;image=https://cdn1.iconfinder.com/data/icons/unicons-line-vol-3/24/docker-128.png;imageBackground=none;imageBorder=none;rounded=0;" vertex="1" parent="1">
          <mxGeometry x="809" y="546" width="58" height="58" as="geometry" />
        </mxCell>
        <mxCell id="YpeX5IWYdp3d9IxiseLO-12" value="Backend" style="text;html=1;align=center;verticalAlign=middle;whiteSpace=wrap;rounded=0;" vertex="1" parent="1">
          <mxGeometry x="783" y="616" width="110" height="30" as="geometry" />
        </mxCell>
        <mxCell id="YpeX5IWYdp3d9IxiseLO-21" value="&lt;div align=&quot;center&quot; style=&quot;line-height: 220%;&quot;&gt;&lt;br&gt;&lt;/div&gt;" style="whiteSpace=wrap;html=1;aspect=fixed;fillColor=#dae8fc;strokeColor=#6c8ebf;align=center;rounded=0;" vertex="1" parent="1">
          <mxGeometry x="1000" y="526" width="140" height="140" as="geometry" />
        </mxCell>
        <mxCell id="YpeX5IWYdp3d9IxiseLO-25" value="" style="rounded=0;whiteSpace=wrap;html=1;fillColor=#dae8fc;strokeColor=#6c8ebf;" vertex="1" parent="1">
          <mxGeometry x="518" y="330" width="140" height="522" as="geometry" />
        </mxCell>
        <mxCell id="YpeX5IWYdp3d9IxiseLO-19" value="" style="shape=image;html=1;verticalAlign=top;verticalLabelPosition=bottom;labelBackgroundColor=#ffffff;imageAspect=0;aspect=fixed;image=https://cdn1.iconfinder.com/data/icons/unicons-line-vol-3/24/docker-128.png;imageBackground=none;imageBorder=none;rounded=0;" vertex="1" parent="1">
          <mxGeometry x="560" y="526" width="58" height="58" as="geometry" />
        </mxCell>
        <mxCell id="YpeX5IWYdp3d9IxiseLO-20" value="Frontend" style="text;html=1;align=center;verticalAlign=middle;whiteSpace=wrap;rounded=0;" vertex="1" parent="1">
          <mxGeometry x="533" y="584" width="110" height="30" as="geometry" />
        </mxCell>
        <mxCell id="YpeX5IWYdp3d9IxiseLO-39" value="Client 2" style="whiteSpace=wrap;html=1;aspect=fixed;fillColor=#dae8fc;strokeColor=#6c8ebf;align=center;rounded=0;" vertex="1" parent="1">
          <mxGeometry x="278" y="616" width="140" height="140" as="geometry" />
        </mxCell>
        <mxCell id="YpeX5IWYdp3d9IxiseLO-40" value="Client 1" style="whiteSpace=wrap;html=1;aspect=fixed;fillColor=#dae8fc;strokeColor=#6c8ebf;align=center;rounded=0;" vertex="1" parent="1">
          <mxGeometry x="278" y="412" width="140" height="140" as="geometry" />
        </mxCell>
        <mxCell id="YpeX5IWYdp3d9IxiseLO-50" value="" style="shape=image;html=1;verticalAlign=top;verticalLabelPosition=bottom;labelBackgroundColor=#ffffff;imageAspect=0;aspect=fixed;image=https://cdn1.iconfinder.com/data/icons/unicons-line-vol-2/24/database-128.png;rounded=0;" vertex="1" parent="1">
          <mxGeometry x="1019" y="531.61" width="102" height="102" as="geometry" />
        </mxCell>
        <mxCell id="YpeX5IWYdp3d9IxiseLO-53" value="Bd" style="text;html=1;align=center;verticalAlign=middle;whiteSpace=wrap;rounded=0;" vertex="1" parent="1">
          <mxGeometry x="1015" y="627" width="110" height="30" as="geometry" />
        </mxCell>
        <mxCell id="YpeX5IWYdp3d9IxiseLO-54" value="&lt;div&gt;persistence&lt;/div&gt;" style="text;html=1;align=center;verticalAlign=middle;whiteSpace=wrap;rounded=0;" vertex="1" parent="1">
          <mxGeometry x="1135" y="590" width="110" height="30" as="geometry" />
        </mxCell>
        <mxCell id="YpeX5IWYdp3d9IxiseLO-55" value="volume" style="text;html=1;align=center;verticalAlign=middle;whiteSpace=wrap;rounded=0;" vertex="1" parent="1">
          <mxGeometry x="1214" y="627" width="110" height="30" as="geometry" />
        </mxCell>
        <mxCell id="YpeX5IWYdp3d9IxiseLO-56" value="" style="shape=image;html=1;verticalAlign=top;verticalLabelPosition=bottom;labelBackgroundColor=#ffffff;imageAspect=0;aspect=fixed;image=https://cdn1.iconfinder.com/data/icons/unicons-line-vol-2/24/database-128.png;rounded=0;" vertex="1" parent="1">
          <mxGeometry x="1218" y="531.61" width="106" height="106" as="geometry" />
        </mxCell>
      </root>
    </mxGraphModel>
  </diagram>
</mxfile>
